<?xml version="1.0" encoding="utf-8"?>
<!-- Generator: Adobe Illustrator 22.0.1, SVG Export Plug-In . SVG Version: 6.00 Build 0)  -->
<svg version="1.1" id="Ebene_1" xmlns="http://www.w3.org/2000/svg" width="16" height="16" xmlns:xlink="http://www.w3.org/1999/xlink" x="0px" y="0px"
	 viewBox="0 0 16 16" style="enable-background:new 0 0 16 16;" xml:space="preserve">
<style type="text/css">
	.st0{fill:#807578;}
</style>
<path class="st0" d="M11.3,2.1l-3,3c-0.2,0.2-0.5,0.2-0.7,0l-3-3C4.5,1.9,4.2,1.9,4,2.1L2.1,4c-0.2,0.2-0.2,0.5,0,0.7l3,3
	c0.2,0.2,0.2,0.5,0,0.7l-3,3c-0.2,0.2-0.2,0.5,0,0.7l1.9,1.9c0.2,0.2,0.5,0.2,0.7,0l3-3c0.2-0.2,0.5-0.2,0.7,0l3,3
	c0.2,0.2,0.5,0.2,0.7,0L14,12c0.2-0.2,0.2-0.5,0-0.7l-3-3c-0.2-0.2-0.2-0.5,0-0.7l3-3c0.2-0.2,0.2-0.5,0-0.7L12,2.1
	C11.8,1.9,11.5,1.9,11.3,2.1z"/>
</svg>
