<?xml version="1.0" encoding="utf-8"?>
<!-- Generator: Adobe Illustrator 22.0.1, SVG Export Plug-In . SVG Version: 6.00 Build 0)  -->
<svg version="1.1" id="Ebene_1" xmlns="http://www.w3.org/2000/svg" width="16" height="16" xmlns:xlink="http://www.w3.org/1999/xlink" x="0px" y="0px"
	 viewBox="0 0 16 16" style="enable-background:new 0 0 16 16;" xml:space="preserve">
<style type="text/css">
	.st0{fill:#807578;}
	.st1{fill:#A6C523;}
</style>
<circle class="st0" cx="8" cy="8" r="6.4"/>
<path class="st1" d="M11.9,6.6H9.8c-0.2,0-0.4-0.2-0.4-0.4V4.1c0-0.2-0.2-0.4-0.4-0.4H7c-0.2,0-0.4,0.2-0.4,0.4l0,2.2
	c0,0.2-0.2,0.4-0.4,0.4H4.1C3.9,6.6,3.7,6.8,3.7,7v2c0,0.2,0.2,0.4,0.4,0.4h2.2c0.2,0,0.4,0.2,0.4,0.4v2.2c0,0.2,0.2,0.4,0.4,0.4h2
	c0.2,0,0.4-0.2,0.4-0.4V9.8c0-0.2,0.2-0.4,0.4-0.4h2.2c0.2,0,0.4-0.2,0.4-0.4V7C12.3,6.8,12.1,6.6,11.9,6.6L11.9,6.6z"/>
</svg>
